<svg width="440" height="440" xmlns="http://www.w3.org/2000/svg" xmlns:xlink="http://www.w3.org/1999/xlink" xml:space="preserve" overflow="hidden"><g transform="translate(-339 -59)"><path d="M471.458 228.583 701.083 228.583 701.083 205.667C701.083 195.583 692.833 187.333 682.75 187.333L545.25 187.333 494.833 153.875C491.625 152.042 488.417 150.667 484.75 150.667L398.583 150.667C388.5 150.667 380.25 158.917 380.25 169L380.25 393.583C380.25 394.5 439.375 250.125 439.375 250.125 444.875 237.292 457.25 228.583 471.458 228.583Z" fill="#00B0F0"/><path d="M737.75 265.25C737.75 255.625 730.875 247.833 721.25 246.917L471.458 246.917C464.583 246.917 458.625 251.042 455.875 257L394 407.333 673.583 407.333 735.917 273.5C737.292 270.75 737.75 268 737.75 265.25L737.75 265.25Z" fill="#00B0F0"/></g></svg>